<svg width="292" height="150" viewBox="0 0 292 150" fill="none" xmlns="http://www.w3.org/2000/svg">
<path d="M53.9508 36H48.8873V11.7285H62.7994V15.9453H53.9508V22.2041H62.1852V26.4043H53.9508V36ZM74.4525 17.0576C76.9428 17.0576 78.852 17.5999 80.1801 18.6846C81.5082 19.7692 82.1723 21.4183 82.1723 23.6318V36H78.6361L77.6566 33.4766H77.5238C76.9926 34.1406 76.4503 34.6829 75.8969 35.1035C75.3435 35.5241 74.7071 35.834 73.9877 36.0332C73.2683 36.2324 72.394 36.332 71.3647 36.332C70.269 36.332 69.2839 36.1217 68.4096 35.7012C67.5463 35.2806 66.8656 34.6387 66.3676 33.7754C65.8695 32.901 65.6205 31.7943 65.6205 30.4551C65.6205 28.485 66.3122 27.0352 67.6957 26.1055C69.0792 25.1647 71.1544 24.6445 73.9213 24.5449L77.142 24.4453V23.6318C77.142 22.6579 76.8874 21.944 76.3783 21.4902C75.8692 21.0365 75.1609 20.8096 74.2533 20.8096C73.3568 20.8096 72.477 20.9368 71.6137 21.1914C70.7504 21.446 69.8871 21.7669 69.0238 22.1543L67.3471 18.7344C68.3321 18.2142 69.4333 17.8047 70.6508 17.5059C71.8793 17.207 73.1466 17.0576 74.4525 17.0576ZM77.142 27.4004L75.183 27.4668C73.545 27.5111 72.405 27.8044 71.7631 28.3467C71.1322 28.889 70.8168 29.6029 70.8168 30.4883C70.8168 31.263 71.0437 31.8164 71.4975 32.1484C71.9512 32.4694 72.5434 32.6299 73.2738 32.6299C74.3585 32.6299 75.2716 32.3089 76.0131 31.667C76.7657 31.0251 77.142 30.112 77.142 28.9277V27.4004ZM94.6389 36.332C92.8016 36.332 91.2355 36 89.9406 35.3359C88.6457 34.6608 87.6607 33.6204 86.9855 32.2148C86.3104 30.8092 85.9729 29.0107 85.9729 26.8193C85.9729 24.5505 86.3547 22.7021 87.1184 21.2744C87.8931 19.8356 88.9611 18.7786 90.3225 18.1035C91.6949 17.4284 93.2831 17.0908 95.0871 17.0908C96.371 17.0908 97.4777 17.2181 98.4074 17.4727C99.3482 17.7161 100.167 18.0094 100.864 18.3525L99.3703 22.2705C98.5734 21.9495 97.8319 21.6895 97.1457 21.4902C96.4595 21.2799 95.7733 21.1748 95.0871 21.1748C94.2017 21.1748 93.4657 21.3851 92.8791 21.8057C92.2925 22.2152 91.8553 22.835 91.5676 23.665C91.2798 24.4951 91.1359 25.5355 91.1359 26.7861C91.1359 28.0146 91.2909 29.0329 91.6008 29.8408C91.9107 30.6488 92.3589 31.252 92.9455 31.6504C93.5321 32.0378 94.246 32.2314 95.0871 32.2314C96.1385 32.2314 97.0738 32.0931 97.8928 31.8164C98.7118 31.5286 99.5087 31.1302 100.283 30.6211V34.9541C99.5087 35.4411 98.6952 35.7897 97.843 36C97.0018 36.2214 95.9338 36.332 94.6389 36.332ZM111.953 17.0908C113.669 17.0908 115.146 17.4229 116.386 18.0869C117.625 18.7399 118.583 19.6917 119.258 20.9424C119.933 22.193 120.271 23.7204 120.271 25.5244V27.9814H108.301C108.356 29.4092 108.782 30.5326 109.579 31.3516C110.387 32.1595 111.505 32.5635 112.933 32.5635C114.117 32.5635 115.201 32.4417 116.187 32.1982C117.172 31.9548 118.184 31.5895 119.225 31.1025V35.0205C118.306 35.4743 117.343 35.8063 116.336 36.0166C115.34 36.2269 114.128 36.332 112.7 36.332C110.841 36.332 109.192 35.9889 107.753 35.3027C106.325 34.6165 105.202 33.5706 104.383 32.165C103.575 30.7594 103.171 28.9886 103.171 26.8525C103.171 24.6833 103.536 22.8792 104.267 21.4404C105.008 19.9906 106.037 18.9059 107.354 18.1865C108.672 17.4561 110.204 17.0908 111.953 17.0908ZM111.986 20.6934C111.001 20.6934 110.182 21.0088 109.529 21.6396C108.887 22.2705 108.517 23.2611 108.417 24.6113H115.522C115.511 23.8587 115.373 23.1891 115.107 22.6025C114.853 22.016 114.465 21.5511 113.945 21.208C113.436 20.8649 112.783 20.6934 111.986 20.6934ZM140.09 11.7285C142.293 11.7285 144.108 11.9941 145.536 12.5254C146.975 13.0566 148.043 13.859 148.74 14.9326C149.437 16.0062 149.786 17.362 149.786 19C149.786 20.1068 149.575 21.0752 149.155 21.9053C148.734 22.7354 148.181 23.4382 147.495 24.0137C146.809 24.5892 146.067 25.0596 145.27 25.4248L152.409 36H146.698L140.904 26.6865H138.165V36H133.018V11.7285H140.09ZM139.725 15.9453H138.165V22.5029H139.825C141.529 22.5029 142.747 22.2207 143.477 21.6562C144.219 21.0807 144.589 20.2396 144.589 19.1328C144.589 17.9818 144.191 17.1628 143.394 16.6758C142.608 16.1888 141.385 15.9453 139.725 15.9453ZM162.418 17.0908C164.134 17.0908 165.611 17.4229 166.851 18.0869C168.091 18.7399 169.048 19.6917 169.723 20.9424C170.398 22.193 170.736 23.7204 170.736 25.5244V27.9814H158.766C158.821 29.4092 159.247 30.5326 160.044 31.3516C160.852 32.1595 161.97 32.5635 163.398 32.5635C164.582 32.5635 165.667 32.4417 166.652 32.1982C167.637 31.9548 168.649 31.5895 169.69 31.1025V35.0205C168.771 35.4743 167.808 35.8063 166.801 36.0166C165.805 36.2269 164.593 36.332 163.165 36.332C161.306 36.332 159.657 35.9889 158.218 35.3027C156.79 34.6165 155.667 33.5706 154.848 32.165C154.04 30.7594 153.636 28.9886 153.636 26.8525C153.636 24.6833 154.001 22.8792 154.732 21.4404C155.473 19.9906 156.503 18.9059 157.82 18.1865C159.137 17.4561 160.67 17.0908 162.418 17.0908ZM162.452 20.6934C161.467 20.6934 160.648 21.0088 159.995 21.6396C159.353 22.2705 158.982 23.2611 158.882 24.6113H165.988C165.977 23.8587 165.838 23.1891 165.573 22.6025C165.318 22.016 164.931 21.5511 164.411 21.208C163.901 20.8649 163.248 20.6934 162.452 20.6934ZM182.156 17.0576C184.647 17.0576 186.556 17.5999 187.884 18.6846C189.212 19.7692 189.876 21.4183 189.876 23.6318V36H186.34L185.361 33.4766H185.228C184.696 34.1406 184.154 34.6829 183.601 35.1035C183.047 35.5241 182.411 35.834 181.692 36.0332C180.972 36.2324 180.098 36.332 179.069 36.332C177.973 36.332 176.988 36.1217 176.113 35.7012C175.25 35.2806 174.57 34.6387 174.071 33.7754C173.573 32.901 173.324 31.7943 173.324 30.4551C173.324 28.485 174.016 27.0352 175.4 26.1055C176.783 25.1647 178.858 24.6445 181.625 24.5449L184.846 24.4453V23.6318C184.846 22.6579 184.591 21.944 184.082 21.4902C183.573 21.0365 182.865 20.8096 181.957 20.8096C181.061 20.8096 180.181 20.9368 179.318 21.1914C178.454 21.446 177.591 21.7669 176.728 22.1543L175.051 18.7344C176.036 18.2142 177.137 17.8047 178.355 17.5059C179.583 17.207 180.85 17.0576 182.156 17.0576ZM184.846 27.4004L182.887 27.4668C181.249 27.5111 180.109 27.8044 179.467 28.3467C178.836 28.889 178.521 29.6029 178.521 30.4883C178.521 31.263 178.748 31.8164 179.201 32.1484C179.655 32.4694 180.247 32.6299 180.978 32.6299C182.062 32.6299 182.975 32.3089 183.717 31.667C184.47 31.0251 184.846 30.112 184.846 28.9277V27.4004ZM199.869 36H194.806V10.168H199.869V36ZM209.962 17.4395V36H204.898V17.4395H209.962ZM207.438 10.168C208.191 10.168 208.838 10.3451 209.381 10.6992C209.923 11.0423 210.194 11.6898 210.194 12.6416C210.194 13.5824 209.923 14.2354 209.381 14.6006C208.838 14.9548 208.191 15.1318 207.438 15.1318C206.675 15.1318 206.022 14.9548 205.479 14.6006C204.948 14.2354 204.682 13.5824 204.682 12.6416C204.682 11.6898 204.948 11.0423 205.479 10.6992C206.022 10.3451 206.675 10.168 207.438 10.168ZM222.81 32.2979C223.364 32.2979 223.9 32.2425 224.421 32.1318C224.952 32.0212 225.477 31.8828 225.998 31.7168V35.4854C225.455 35.7288 224.78 35.9281 223.972 36.083C223.175 36.249 222.301 36.332 221.349 36.332C220.242 36.332 219.246 36.1549 218.361 35.8008C217.487 35.4355 216.795 34.8102 216.286 33.9248C215.788 33.0283 215.539 31.7832 215.539 30.1895V21.2412H213.115V19.0996L215.904 17.4062L217.365 13.4883H220.602V17.4395H225.798V21.2412H220.602V30.1895C220.602 30.8978 220.801 31.429 221.2 31.7832C221.609 32.1263 222.146 32.2979 222.81 32.2979ZM226.81 17.4395H232.355L235.858 27.8818C235.968 28.2139 236.063 28.5514 236.14 28.8945C236.218 29.2376 236.284 29.5918 236.339 29.957C236.395 30.3223 236.439 30.7041 236.472 31.1025H236.572C236.638 30.5049 236.727 29.946 236.837 29.4258C236.959 28.9056 237.108 28.391 237.286 27.8818L240.722 17.4395H246.151L238.298 38.374C237.822 39.6579 237.203 40.7259 236.439 41.5781C235.675 42.4414 234.795 43.0889 233.799 43.5205C232.814 43.9521 231.73 44.168 230.545 44.168C229.97 44.168 229.472 44.1348 229.051 44.0684C228.631 44.013 228.271 43.9521 227.972 43.8857V39.8682C228.204 39.9235 228.498 39.9733 228.852 40.0176C229.206 40.0618 229.577 40.084 229.964 40.084C230.673 40.084 231.281 39.9346 231.79 39.6357C232.3 39.3369 232.726 38.9329 233.069 38.4238C233.412 37.9258 233.683 37.3779 233.882 36.7803L234.181 35.8672L226.81 17.4395Z" fill="white" fill-opacity="0.85"/>
<path d="M76.3156 80.8438V83.8828C76.3156 84.2318 76.3052 84.5703 76.2844 84.8984C76.2688 85.2266 76.2557 85.4818 76.2453 85.6641H76.3156C76.55 85.2786 76.8885 84.9531 77.3313 84.6875C77.774 84.4219 78.3391 84.2891 79.0266 84.2891C80.0995 84.2891 80.9536 84.6615 81.5891 85.4062C82.2297 86.1458 82.55 87.2474 82.55 88.7109C82.55 89.6745 82.4042 90.487 82.1125 91.1484C81.8208 91.8099 81.4094 92.3099 80.8781 92.6484C80.3469 92.987 79.7193 93.1562 78.9953 93.1562C78.3182 93.1562 77.7609 93.0312 77.3234 92.7812C76.8911 92.526 76.5578 92.2161 76.3234 91.8516H76.2219L75.9563 93H75.0188V80.8438H76.3156ZM78.8156 85.375C78.1958 85.375 77.7036 85.4974 77.3391 85.7422C76.9745 85.9818 76.7115 86.3464 76.55 86.8359C76.3938 87.3203 76.3156 87.9349 76.3156 88.6797V88.75C76.3156 89.8281 76.4953 90.6536 76.8547 91.2266C77.2141 91.7943 77.8677 92.0781 78.8156 92.0781C79.6125 92.0781 80.2089 91.7865 80.6047 91.2031C81.0057 90.6198 81.2063 89.7865 81.2063 88.7031C81.2063 87.599 81.0083 86.7682 80.6125 86.2109C80.2219 85.6536 79.6229 85.375 78.8156 85.375ZM83.1641 84.4375H84.5547L86.4453 89.4062C86.5547 89.6979 86.6562 89.9792 86.75 90.25C86.8438 90.5156 86.9271 90.7708 87 91.0156C87.0729 91.2604 87.1302 91.4974 87.1719 91.7266H87.2266C87.2995 91.4661 87.4036 91.125 87.5391 90.7031C87.6745 90.276 87.8203 89.8411 87.9766 89.3984L89.7656 84.4375H91.1641L87.4375 94.2578C87.2396 94.7839 87.0078 95.2422 86.7422 95.6328C86.4818 96.0234 86.1641 96.3229 85.7891 96.5312C85.4141 96.7448 84.9609 96.8516 84.4297 96.8516C84.1849 96.8516 83.9688 96.8359 83.7812 96.8047C83.5938 96.7786 83.4323 96.7474 83.2969 96.7109V95.6719C83.4115 95.6979 83.5495 95.7214 83.7109 95.7422C83.8776 95.763 84.0495 95.7734 84.2266 95.7734C84.5495 95.7734 84.8281 95.7109 85.0625 95.5859C85.3021 95.4661 85.5078 95.2891 85.6797 95.0547C85.8516 94.8203 86 94.5417 86.125 94.2188L86.5938 93.0156L83.1641 84.4375ZM101.306 93L97.4703 82.8906H97.4078C97.4286 83.1042 97.4469 83.3646 97.4625 83.6719C97.4781 83.9792 97.4911 84.3151 97.5016 84.6797C97.512 85.0391 97.5172 85.4062 97.5172 85.7812V93H96.2828V81.5781H98.2516L101.869 91.0781H101.923L105.595 81.5781H107.548V93H106.236V85.6875C106.236 85.349 106.241 85.0104 106.252 84.6719C106.262 84.3281 106.275 84.0052 106.291 83.7031C106.306 83.3958 106.322 83.1302 106.338 82.9062H106.275L102.392 93H101.306ZM113.381 84.2969C114.402 84.2969 115.16 84.526 115.655 84.9844C116.149 85.4427 116.397 86.1745 116.397 87.1797V93H115.452L115.202 91.7344H115.139C114.899 92.0469 114.649 92.3099 114.389 92.5234C114.129 92.7318 113.827 92.8906 113.483 93C113.144 93.1042 112.728 93.1562 112.233 93.1562C111.712 93.1562 111.248 93.0651 110.842 92.8828C110.441 92.7005 110.123 92.4245 109.889 92.0547C109.66 91.6849 109.545 91.2161 109.545 90.6484C109.545 89.7943 109.884 89.138 110.561 88.6797C111.238 88.2214 112.269 87.9714 113.655 87.9297L115.131 87.8672V87.3438C115.131 86.6042 114.972 86.0859 114.655 85.7891C114.337 85.4922 113.889 85.3438 113.311 85.3438C112.863 85.3438 112.436 85.4089 112.03 85.5391C111.623 85.6693 111.238 85.8229 110.873 86L110.475 85.0156C110.86 84.8177 111.303 84.6484 111.803 84.5078C112.303 84.3672 112.829 84.2969 113.381 84.2969ZM115.116 88.7812L113.811 88.8359C112.743 88.8776 111.991 89.0521 111.553 89.3594C111.116 89.6667 110.897 90.1016 110.897 90.6641C110.897 91.1536 111.045 91.5156 111.342 91.75C111.639 91.9844 112.032 92.1016 112.522 92.1016C113.282 92.1016 113.905 91.8906 114.389 91.4688C114.873 91.0469 115.116 90.4141 115.116 89.5703V88.7812ZM122.659 84.2812C122.831 84.2812 123.011 84.2917 123.198 84.3125C123.386 84.3281 123.553 84.3516 123.698 84.3828L123.534 85.5859C123.394 85.5495 123.238 85.5208 123.066 85.5C122.894 85.4792 122.732 85.4688 122.581 85.4688C122.238 85.4688 121.912 85.5391 121.605 85.6797C121.303 85.8151 121.037 86.013 120.808 86.2734C120.579 86.5286 120.399 86.8385 120.269 87.2031C120.139 87.5625 120.073 87.9635 120.073 88.4062V93H118.769V84.4375H119.847L119.988 86.0156H120.042C120.219 85.6979 120.433 85.4089 120.683 85.1484C120.933 84.8828 121.222 84.6719 121.55 84.5156C121.883 84.3594 122.253 84.2812 122.659 84.2812ZM126.305 80.8438V87.1562C126.305 87.3646 126.297 87.6198 126.281 87.9219C126.266 88.2188 126.253 88.4818 126.242 88.7109H126.297C126.406 88.5755 126.565 88.375 126.773 88.1094C126.987 87.8438 127.167 87.6302 127.312 87.4688L130.156 84.4375H131.68L128.234 88.0938L131.93 93H130.367L127.344 88.9453L126.305 89.8984V93H125.016V80.8438H126.305ZM140.505 88.7031C140.505 89.4062 140.414 90.0339 140.231 90.5859C140.049 91.138 139.786 91.6042 139.442 91.9844C139.098 92.3646 138.682 92.6562 138.192 92.8594C137.708 93.0573 137.158 93.1562 136.544 93.1562C135.971 93.1562 135.445 93.0573 134.966 92.8594C134.492 92.6562 134.08 92.3646 133.731 91.9844C133.388 91.6042 133.119 91.138 132.927 90.5859C132.739 90.0339 132.645 89.4062 132.645 88.7031C132.645 87.7656 132.804 86.9688 133.122 86.3125C133.44 85.651 133.893 85.1484 134.481 84.8047C135.075 84.4557 135.781 84.2812 136.598 84.2812C137.38 84.2812 138.062 84.4557 138.645 84.8047C139.234 85.1536 139.69 85.6589 140.013 86.3203C140.341 86.9766 140.505 87.7708 140.505 88.7031ZM133.989 88.7031C133.989 89.3906 134.08 89.987 134.263 90.4922C134.445 90.9974 134.726 91.388 135.106 91.6641C135.486 91.9401 135.976 92.0781 136.575 92.0781C137.169 92.0781 137.656 91.9401 138.036 91.6641C138.421 91.388 138.705 90.9974 138.888 90.4922C139.07 89.987 139.161 89.3906 139.161 88.7031C139.161 88.0208 139.07 87.4323 138.888 86.9375C138.705 86.4375 138.424 86.0521 138.044 85.7812C137.664 85.5104 137.171 85.375 136.567 85.375C135.677 85.375 135.023 85.6693 134.606 86.2578C134.195 86.8464 133.989 87.6615 133.989 88.7031ZM151.522 93L147.686 82.8906H147.623C147.644 83.1042 147.663 83.3646 147.678 83.6719C147.694 83.9792 147.707 84.3151 147.717 84.6797C147.728 85.0391 147.733 85.4062 147.733 85.7812V93H146.498V81.5781H148.467L152.084 91.0781H152.139L155.811 81.5781H157.764V93H156.452V85.6875C156.452 85.349 156.457 85.0104 156.467 84.6719C156.478 84.3281 156.491 84.0052 156.506 83.7031C156.522 83.3958 156.538 83.1302 156.553 82.9062H156.491L152.608 93H151.522ZM167.464 84.4375V93H166.402L166.214 91.7969H166.144C165.967 92.0938 165.738 92.3438 165.456 92.5469C165.175 92.75 164.857 92.901 164.503 93C164.154 93.1042 163.782 93.1562 163.386 93.1562C162.709 93.1562 162.141 93.0469 161.683 92.8281C161.224 92.6094 160.878 92.2708 160.644 91.8125C160.415 91.3542 160.3 90.7656 160.3 90.0469V84.4375H161.613V89.9531C161.613 90.6667 161.774 91.2005 162.097 91.5547C162.42 91.9036 162.912 92.0781 163.573 92.0781C164.209 92.0781 164.714 91.9583 165.089 91.7188C165.469 91.4792 165.743 91.1276 165.909 90.6641C166.076 90.1953 166.159 89.6224 166.159 88.9453V84.4375H167.464ZM172.672 92.0938C172.885 92.0938 173.104 92.0755 173.328 92.0391C173.552 92.0026 173.734 91.9583 173.875 91.9062V92.9141C173.724 92.9818 173.513 93.0391 173.242 93.0859C172.977 93.1328 172.716 93.1562 172.461 93.1562C172.008 93.1562 171.596 93.0781 171.227 92.9219C170.857 92.7604 170.56 92.4896 170.336 92.1094C170.117 91.7292 170.008 91.2031 170.008 90.5312V85.4531H168.789V84.8203L170.016 84.3125L170.531 82.4531H171.312V84.4375H173.82V85.4531H171.312V90.4922C171.312 91.0286 171.435 91.4297 171.68 91.6953C171.93 91.9609 172.26 92.0938 172.672 92.0938ZM178.513 84.2969C179.533 84.2969 180.291 84.526 180.786 84.9844C181.281 85.4427 181.528 86.1745 181.528 87.1797V93H180.583L180.333 91.7344H180.27C180.031 92.0469 179.781 92.3099 179.52 92.5234C179.26 92.7318 178.958 92.8906 178.614 93C178.276 93.1042 177.859 93.1562 177.364 93.1562C176.843 93.1562 176.38 93.0651 175.973 92.8828C175.572 92.7005 175.255 92.4245 175.02 92.0547C174.791 91.6849 174.677 91.2161 174.677 90.6484C174.677 89.7943 175.015 89.138 175.692 88.6797C176.369 88.2214 177.401 87.9714 178.786 87.9297L180.263 87.8672V87.3438C180.263 86.6042 180.104 86.0859 179.786 85.7891C179.468 85.4922 179.02 85.3438 178.442 85.3438C177.994 85.3438 177.567 85.4089 177.161 85.5391C176.755 85.6693 176.369 85.8229 176.005 86L175.606 85.0156C175.992 84.8177 176.434 84.6484 176.934 84.5078C177.434 84.3672 177.96 84.2969 178.513 84.2969ZM180.247 88.7812L178.942 88.8359C177.874 88.8776 177.122 89.0521 176.684 89.3594C176.247 89.6667 176.028 90.1016 176.028 90.6641C176.028 91.1536 176.177 91.5156 176.473 91.75C176.77 91.9844 177.164 92.1016 177.653 92.1016C178.414 92.1016 179.036 91.8906 179.52 91.4688C180.005 91.0469 180.247 90.4141 180.247 89.5703V88.7812ZM185.783 93L182.533 84.4375H183.923L185.806 89.6172C185.936 89.9714 186.069 90.362 186.205 90.7891C186.34 91.2161 186.434 91.5599 186.486 91.8203H186.541C186.603 91.5599 186.707 91.2161 186.853 90.7891C186.999 90.3568 187.132 89.9661 187.252 89.6172L189.134 84.4375H190.525L187.267 93H185.783ZM194.647 93.1562C193.564 93.1562 192.704 92.7865 192.069 92.0469C191.439 91.3073 191.123 90.2083 191.123 88.75C191.123 87.276 191.446 86.1641 192.092 85.4141C192.738 84.6589 193.597 84.2812 194.67 84.2812C195.123 84.2812 195.519 84.3411 195.858 84.4609C196.196 84.5807 196.488 84.7422 196.733 84.9453C196.978 85.1432 197.183 85.3698 197.35 85.625H197.444C197.423 85.4635 197.402 85.2422 197.381 84.9609C197.36 84.6797 197.35 84.4505 197.35 84.2734V80.8438H198.647V93H197.6L197.405 91.7812H197.35C197.189 92.0365 196.983 92.2682 196.733 92.4766C196.488 92.6849 196.194 92.8516 195.85 92.9766C195.511 93.0964 195.11 93.1562 194.647 93.1562ZM194.85 92.0781C195.767 92.0781 196.415 91.8177 196.795 91.2969C197.176 90.776 197.366 90.0026 197.366 88.9766V88.7422C197.366 87.6536 197.183 86.8177 196.819 86.2344C196.459 85.651 195.803 85.3594 194.85 85.3594C194.053 85.3594 193.457 85.6667 193.061 86.2812C192.665 86.8906 192.467 87.724 192.467 88.7812C192.467 89.8333 192.663 90.6458 193.053 91.2188C193.449 91.7917 194.048 92.0781 194.85 92.0781ZM206.597 93H200.355V92.1406L205.05 85.4531H200.652V84.4375H206.495V85.3984L201.863 91.9922H206.597V93ZM209.594 84.4375V93H208.297V84.4375H209.594ZM208.961 81.2344C209.174 81.2344 209.357 81.3047 209.508 81.4453C209.664 81.5807 209.742 81.7943 209.742 82.0859C209.742 82.3724 209.664 82.5859 209.508 82.7266C209.357 82.8672 209.174 82.9375 208.961 82.9375C208.737 82.9375 208.549 82.8672 208.398 82.7266C208.253 82.5859 208.18 82.3724 208.18 82.0859C208.18 81.7943 208.253 81.5807 208.398 81.4453C208.549 81.3047 208.737 81.2344 208.961 81.2344ZM215.473 93.1562C214.703 93.1562 214.023 92.9974 213.434 92.6797C212.846 92.362 212.387 91.8776 212.059 91.2266C211.731 90.5755 211.567 89.7552 211.567 88.7656C211.567 87.7292 211.739 86.8828 212.083 86.2266C212.432 85.5651 212.911 85.0755 213.52 84.7578C214.13 84.4401 214.822 84.2812 215.598 84.2812C216.026 84.2812 216.437 84.3255 216.833 84.4141C217.234 84.4974 217.562 84.6042 217.817 84.7344L217.427 85.8203C217.166 85.7161 216.864 85.6224 216.52 85.5391C216.182 85.4557 215.864 85.4141 215.567 85.4141C214.973 85.4141 214.479 85.5417 214.083 85.7969C213.692 86.0521 213.398 86.4271 213.2 86.9219C213.007 87.4167 212.911 88.026 212.911 88.75C212.911 89.4427 213.005 90.0339 213.192 90.5234C213.385 91.013 213.669 91.388 214.044 91.6484C214.424 91.9036 214.898 92.0312 215.466 92.0312C215.919 92.0312 216.328 91.9844 216.692 91.8906C217.057 91.7917 217.387 91.6771 217.684 91.5469V92.7031C217.398 92.849 217.078 92.9609 216.723 93.0391C216.374 93.1172 215.958 93.1562 215.473 93.1562Z" fill="white" fill-opacity="0.75"/>
<path d="M59.9234 134.586C59.2932 134.586 58.7255 134.695 58.2203 134.914C57.7203 135.128 57.2932 135.44 56.9391 135.852C56.5901 136.258 56.3219 136.75 56.1344 137.328C55.9469 137.906 55.8531 138.557 55.8531 139.281C55.8531 140.24 56.0016 141.073 56.2984 141.781C56.6005 142.484 57.0484 143.029 57.6422 143.414C58.2411 143.799 58.9885 143.992 59.8844 143.992C60.3948 143.992 60.874 143.951 61.3219 143.867C61.775 143.779 62.2151 143.669 62.6422 143.539V144.695C62.2255 144.852 61.788 144.966 61.3297 145.039C60.8714 145.117 60.3271 145.156 59.6969 145.156C58.5354 145.156 57.5641 144.917 56.7828 144.438C56.0068 143.953 55.4234 143.271 55.0328 142.391C54.6474 141.51 54.4547 140.471 54.4547 139.273C54.4547 138.409 54.5745 137.62 54.8141 136.906C55.0589 136.188 55.413 135.568 55.8766 135.047C56.3453 134.526 56.9182 134.125 57.5953 133.844C58.2776 133.557 59.0589 133.414 59.9391 133.414C60.5172 133.414 61.0745 133.471 61.6109 133.586C62.1474 133.701 62.6318 133.865 63.0641 134.078L62.5328 135.203C62.1682 135.036 61.7672 134.893 61.3297 134.773C60.8974 134.648 60.4286 134.586 59.9234 134.586ZM68.5141 136.281C68.6859 136.281 68.8656 136.292 69.0531 136.312C69.2406 136.328 69.4073 136.352 69.5531 136.383L69.3891 137.586C69.2484 137.549 69.0922 137.521 68.9203 137.5C68.7484 137.479 68.587 137.469 68.4359 137.469C68.0922 137.469 67.7667 137.539 67.4594 137.68C67.1573 137.815 66.8917 138.013 66.6625 138.273C66.4333 138.529 66.2536 138.839 66.1234 139.203C65.9932 139.562 65.9281 139.964 65.9281 140.406V145H64.6234V136.438H65.7016L65.8422 138.016H65.8969C66.074 137.698 66.2875 137.409 66.5375 137.148C66.7875 136.883 67.0766 136.672 67.4047 136.516C67.738 136.359 68.1078 136.281 68.5141 136.281ZM74.1672 136.281C74.8964 136.281 75.5214 136.443 76.0422 136.766C76.563 137.089 76.9615 137.542 77.2375 138.125C77.5135 138.703 77.6516 139.38 77.6516 140.156V140.961H71.7375C71.7531 141.966 72.0031 142.732 72.4875 143.258C72.9719 143.784 73.6542 144.047 74.5344 144.047C75.076 144.047 75.5552 143.997 75.9719 143.898C76.3885 143.799 76.8208 143.654 77.2688 143.461V144.602C76.8365 144.794 76.4068 144.935 75.9797 145.023C75.5578 145.112 75.0578 145.156 74.4797 145.156C73.6568 145.156 72.938 144.99 72.3234 144.656C71.7141 144.318 71.2401 143.823 70.9016 143.172C70.563 142.521 70.3938 141.724 70.3938 140.781C70.3938 139.859 70.5474 139.062 70.8547 138.391C71.1672 137.714 71.6047 137.193 72.1672 136.828C72.7349 136.464 73.4016 136.281 74.1672 136.281ZM74.1516 137.344C73.4589 137.344 72.9068 137.57 72.4953 138.023C72.0839 138.477 71.8391 139.109 71.7609 139.922H76.2922C76.287 139.411 76.2063 138.964 76.05 138.578C75.899 138.188 75.6672 137.885 75.3547 137.672C75.0422 137.453 74.6411 137.344 74.1516 137.344ZM82.7578 136.297C83.7786 136.297 84.5365 136.526 85.0312 136.984C85.526 137.443 85.7734 138.174 85.7734 139.18V145H84.8281L84.5781 143.734H84.5156C84.276 144.047 84.026 144.31 83.7656 144.523C83.5052 144.732 83.2031 144.891 82.8594 145C82.5208 145.104 82.1042 145.156 81.6094 145.156C81.0885 145.156 80.625 145.065 80.2188 144.883C79.8177 144.701 79.5 144.424 79.2656 144.055C79.0365 143.685 78.9219 143.216 78.9219 142.648C78.9219 141.794 79.2604 141.138 79.9375 140.68C80.6146 140.221 81.6458 139.971 83.0312 139.93L84.5078 139.867V139.344C84.5078 138.604 84.349 138.086 84.0312 137.789C83.7135 137.492 83.2656 137.344 82.6875 137.344C82.2396 137.344 81.8125 137.409 81.4062 137.539C81 137.669 80.6146 137.823 80.25 138L79.8516 137.016C80.237 136.818 80.6797 136.648 81.1797 136.508C81.6797 136.367 82.2057 136.297 82.7578 136.297ZM84.4922 140.781L83.1875 140.836C82.1198 140.878 81.3672 141.052 80.9297 141.359C80.4922 141.667 80.2734 142.102 80.2734 142.664C80.2734 143.154 80.4219 143.516 80.7188 143.75C81.0156 143.984 81.4089 144.102 81.8984 144.102C82.6589 144.102 83.2812 143.891 83.7656 143.469C84.25 143.047 84.4922 142.414 84.4922 141.57V140.781ZM90.9109 144.094C91.1245 144.094 91.3432 144.076 91.5672 144.039C91.7911 144.003 91.9734 143.958 92.1141 143.906V144.914C91.963 144.982 91.7521 145.039 91.4812 145.086C91.2156 145.133 90.9552 145.156 90.7 145.156C90.2469 145.156 89.8354 145.078 89.4656 144.922C89.0958 144.76 88.799 144.49 88.575 144.109C88.3562 143.729 88.2469 143.203 88.2469 142.531V137.453H87.0281V136.82L88.2547 136.312L88.7703 134.453H89.5516V136.438H92.0594V137.453H89.5516V142.492C89.5516 143.029 89.674 143.43 89.9187 143.695C90.1687 143.961 90.4995 144.094 90.9109 144.094ZM100.931 140.703C100.931 141.406 100.84 142.034 100.658 142.586C100.476 143.138 100.213 143.604 99.8688 143.984C99.525 144.365 99.1083 144.656 98.6188 144.859C98.1344 145.057 97.5849 145.156 96.9703 145.156C96.3974 145.156 95.8714 145.057 95.3922 144.859C94.9182 144.656 94.5068 144.365 94.1578 143.984C93.8141 143.604 93.5458 143.138 93.3531 142.586C93.1656 142.034 93.0719 141.406 93.0719 140.703C93.0719 139.766 93.2307 138.969 93.5484 138.312C93.8661 137.651 94.3193 137.148 94.9078 136.805C95.5016 136.456 96.2073 136.281 97.025 136.281C97.8063 136.281 98.4885 136.456 99.0719 136.805C99.6604 137.154 100.116 137.659 100.439 138.32C100.767 138.977 100.931 139.771 100.931 140.703ZM94.4156 140.703C94.4156 141.391 94.5068 141.987 94.6891 142.492C94.8714 142.997 95.1526 143.388 95.5328 143.664C95.913 143.94 96.4026 144.078 97.0016 144.078C97.5953 144.078 98.0823 143.94 98.4625 143.664C98.8479 143.388 99.1318 142.997 99.3141 142.492C99.4964 141.987 99.5875 141.391 99.5875 140.703C99.5875 140.021 99.4964 139.432 99.3141 138.938C99.1318 138.438 98.8505 138.052 98.4703 137.781C98.0901 137.51 97.5979 137.375 96.9938 137.375C96.1031 137.375 95.4495 137.669 95.0328 138.258C94.6214 138.846 94.4156 139.661 94.4156 140.703ZM106.764 136.281C106.936 136.281 107.116 136.292 107.303 136.312C107.491 136.328 107.657 136.352 107.803 136.383L107.639 137.586C107.498 137.549 107.342 137.521 107.17 137.5C106.998 137.479 106.837 137.469 106.686 137.469C106.342 137.469 106.017 137.539 105.709 137.68C105.407 137.815 105.142 138.013 104.913 138.273C104.683 138.529 104.504 138.839 104.373 139.203C104.243 139.562 104.178 139.964 104.178 140.406V145H102.873V136.438H103.952L104.092 138.016H104.147C104.324 137.698 104.538 137.409 104.788 137.148C105.038 136.883 105.327 136.672 105.655 136.516C105.988 136.359 106.358 136.281 106.764 136.281ZM120.359 140.703C120.359 141.406 120.268 142.034 120.086 142.586C119.904 143.138 119.641 143.604 119.297 143.984C118.953 144.365 118.536 144.656 118.047 144.859C117.562 145.057 117.013 145.156 116.398 145.156C115.826 145.156 115.299 145.057 114.82 144.859C114.346 144.656 113.935 144.365 113.586 143.984C113.242 143.604 112.974 143.138 112.781 142.586C112.594 142.034 112.5 141.406 112.5 140.703C112.5 139.766 112.659 138.969 112.977 138.312C113.294 137.651 113.747 137.148 114.336 136.805C114.93 136.456 115.635 136.281 116.453 136.281C117.234 136.281 117.917 136.456 118.5 136.805C119.089 137.154 119.544 137.659 119.867 138.32C120.195 138.977 120.359 139.771 120.359 140.703ZM113.844 140.703C113.844 141.391 113.935 141.987 114.117 142.492C114.299 142.997 114.581 143.388 114.961 143.664C115.341 143.94 115.831 144.078 116.43 144.078C117.023 144.078 117.51 143.94 117.891 143.664C118.276 143.388 118.56 142.997 118.742 142.492C118.924 141.987 119.016 141.391 119.016 140.703C119.016 140.021 118.924 139.432 118.742 138.938C118.56 138.438 118.279 138.052 117.898 137.781C117.518 137.51 117.026 137.375 116.422 137.375C115.531 137.375 114.878 137.669 114.461 138.258C114.049 138.846 113.844 139.661 113.844 140.703ZM126.114 137.453H123.981V145H122.684V137.453H121.169V136.828L122.684 136.398V135.828C122.684 135.109 122.791 134.526 123.005 134.078C123.218 133.625 123.528 133.292 123.934 133.078C124.341 132.865 124.835 132.758 125.419 132.758C125.747 132.758 126.046 132.786 126.317 132.844C126.593 132.901 126.835 132.966 127.044 133.039L126.708 134.062C126.531 134.005 126.33 133.953 126.106 133.906C125.888 133.854 125.664 133.828 125.434 133.828C124.94 133.828 124.572 133.99 124.333 134.312C124.098 134.63 123.981 135.13 123.981 135.812V136.438H126.114V137.453ZM132.772 145H131.444V133.578H137.803V134.75H132.772V138.938H137.498V140.102H132.772V145ZM142.417 136.297C143.438 136.297 144.196 136.526 144.691 136.984C145.185 137.443 145.433 138.174 145.433 139.18V145H144.488L144.238 143.734H144.175C143.935 144.047 143.685 144.31 143.425 144.523C143.165 144.732 142.863 144.891 142.519 145C142.18 145.104 141.764 145.156 141.269 145.156C140.748 145.156 140.284 145.065 139.878 144.883C139.477 144.701 139.159 144.424 138.925 144.055C138.696 143.685 138.581 143.216 138.581 142.648C138.581 141.794 138.92 141.138 139.597 140.68C140.274 140.221 141.305 139.971 142.691 139.93L144.167 139.867V139.344C144.167 138.604 144.008 138.086 143.691 137.789C143.373 137.492 142.925 137.344 142.347 137.344C141.899 137.344 141.472 137.409 141.066 137.539C140.659 137.669 140.274 137.823 139.909 138L139.511 137.016C139.896 136.818 140.339 136.648 140.839 136.508C141.339 136.367 141.865 136.297 142.417 136.297ZM144.152 140.781L142.847 140.836C141.779 140.878 141.027 141.052 140.589 141.359C140.152 141.667 139.933 142.102 139.933 142.664C139.933 143.154 140.081 143.516 140.378 143.75C140.675 143.984 141.068 144.102 141.558 144.102C142.318 144.102 142.941 143.891 143.425 143.469C143.909 143.047 144.152 142.414 144.152 141.57V140.781ZM151.234 145.156C150.464 145.156 149.784 144.997 149.195 144.68C148.607 144.362 148.148 143.878 147.82 143.227C147.492 142.576 147.328 141.755 147.328 140.766C147.328 139.729 147.5 138.883 147.844 138.227C148.193 137.565 148.672 137.076 149.281 136.758C149.891 136.44 150.583 136.281 151.359 136.281C151.786 136.281 152.198 136.326 152.594 136.414C152.995 136.497 153.323 136.604 153.578 136.734L153.188 137.82C152.927 137.716 152.625 137.622 152.281 137.539C151.943 137.456 151.625 137.414 151.328 137.414C150.734 137.414 150.24 137.542 149.844 137.797C149.453 138.052 149.159 138.427 148.961 138.922C148.768 139.417 148.672 140.026 148.672 140.75C148.672 141.443 148.766 142.034 148.953 142.523C149.146 143.013 149.43 143.388 149.805 143.648C150.185 143.904 150.659 144.031 151.227 144.031C151.68 144.031 152.089 143.984 152.453 143.891C152.818 143.792 153.148 143.677 153.445 143.547V144.703C153.159 144.849 152.839 144.961 152.484 145.039C152.135 145.117 151.719 145.156 151.234 145.156ZM158.473 136.281C159.203 136.281 159.828 136.443 160.348 136.766C160.869 137.089 161.268 137.542 161.544 138.125C161.82 138.703 161.958 139.38 161.958 140.156V140.961H156.044C156.059 141.966 156.309 142.732 156.794 143.258C157.278 143.784 157.96 144.047 158.841 144.047C159.382 144.047 159.861 143.997 160.278 143.898C160.695 143.799 161.127 143.654 161.575 143.461V144.602C161.143 144.794 160.713 144.935 160.286 145.023C159.864 145.112 159.364 145.156 158.786 145.156C157.963 145.156 157.244 144.99 156.63 144.656C156.02 144.318 155.546 143.823 155.208 143.172C154.869 142.521 154.7 141.724 154.7 140.781C154.7 139.859 154.854 139.062 155.161 138.391C155.473 137.714 155.911 137.193 156.473 136.828C157.041 136.464 157.708 136.281 158.473 136.281ZM158.458 137.344C157.765 137.344 157.213 137.57 156.802 138.023C156.39 138.477 156.145 139.109 156.067 139.922H160.598C160.593 139.411 160.513 138.964 160.356 138.578C160.205 138.188 159.973 137.885 159.661 137.672C159.348 137.453 158.947 137.344 158.458 137.344ZM169.241 145H167.913V133.578H174.272V134.75H169.241V138.938H173.967V140.102H169.241V145ZM176.98 136.438V145H175.683V136.438H176.98ZM176.347 133.234C176.56 133.234 176.743 133.305 176.894 133.445C177.05 133.581 177.128 133.794 177.128 134.086C177.128 134.372 177.05 134.586 176.894 134.727C176.743 134.867 176.56 134.938 176.347 134.938C176.123 134.938 175.935 134.867 175.784 134.727C175.639 134.586 175.566 134.372 175.566 134.086C175.566 133.794 175.639 133.581 175.784 133.445C175.935 133.305 176.123 133.234 176.347 133.234ZM180.734 145H179.43V132.844H180.734V145ZM185.942 144.094C186.156 144.094 186.374 144.076 186.598 144.039C186.822 144.003 187.005 143.958 187.145 143.906V144.914C186.994 144.982 186.783 145.039 186.513 145.086C186.247 145.133 185.986 145.156 185.731 145.156C185.278 145.156 184.867 145.078 184.497 144.922C184.127 144.76 183.83 144.49 183.606 144.109C183.388 143.729 183.278 143.203 183.278 142.531V137.453H182.059V136.82L183.286 136.312L183.802 134.453H184.583V136.438H187.091V137.453H184.583V142.492C184.583 143.029 184.705 143.43 184.95 143.695C185.2 143.961 185.531 144.094 185.942 144.094ZM191.877 136.281C192.606 136.281 193.231 136.443 193.752 136.766C194.272 137.089 194.671 137.542 194.947 138.125C195.223 138.703 195.361 139.38 195.361 140.156V140.961H189.447C189.462 141.966 189.712 142.732 190.197 143.258C190.681 143.784 191.364 144.047 192.244 144.047C192.785 144.047 193.265 143.997 193.681 143.898C194.098 143.799 194.53 143.654 194.978 143.461V144.602C194.546 144.794 194.116 144.935 193.689 145.023C193.267 145.112 192.767 145.156 192.189 145.156C191.366 145.156 190.647 144.99 190.033 144.656C189.423 144.318 188.949 143.823 188.611 143.172C188.272 142.521 188.103 141.724 188.103 140.781C188.103 139.859 188.257 139.062 188.564 138.391C188.877 137.714 189.314 137.193 189.877 136.828C190.444 136.464 191.111 136.281 191.877 136.281ZM191.861 137.344C191.168 137.344 190.616 137.57 190.205 138.023C189.793 138.477 189.548 139.109 189.47 139.922H194.002C193.996 139.411 193.916 138.964 193.759 138.578C193.608 138.188 193.377 137.885 193.064 137.672C192.752 137.453 192.351 137.344 191.861 137.344ZM201.155 136.281C201.327 136.281 201.506 136.292 201.694 136.312C201.881 136.328 202.048 136.352 202.194 136.383L202.03 137.586C201.889 137.549 201.733 137.521 201.561 137.5C201.389 137.479 201.228 137.469 201.077 137.469C200.733 137.469 200.407 137.539 200.1 137.68C199.798 137.815 199.532 138.013 199.303 138.273C199.074 138.529 198.894 138.839 198.764 139.203C198.634 139.562 198.569 139.964 198.569 140.406V145H197.264V136.438H198.342L198.483 138.016H198.538C198.715 137.698 198.928 137.409 199.178 137.148C199.428 136.883 199.717 136.672 200.045 136.516C200.379 136.359 200.748 136.281 201.155 136.281ZM209.05 142.656C209.05 143.203 208.912 143.664 208.636 144.039C208.365 144.409 207.974 144.688 207.464 144.875C206.959 145.062 206.355 145.156 205.652 145.156C205.053 145.156 204.534 145.109 204.097 145.016C203.659 144.922 203.277 144.789 202.948 144.617V143.422C203.297 143.594 203.714 143.75 204.198 143.891C204.683 144.031 205.178 144.102 205.683 144.102C206.422 144.102 206.959 143.982 207.292 143.742C207.626 143.503 207.792 143.177 207.792 142.766C207.792 142.531 207.724 142.326 207.589 142.148C207.459 141.966 207.237 141.792 206.925 141.625C206.612 141.453 206.18 141.266 205.628 141.062C205.081 140.854 204.607 140.648 204.206 140.445C203.81 140.237 203.503 139.984 203.284 139.688C203.071 139.391 202.964 139.005 202.964 138.531C202.964 137.807 203.256 137.253 203.839 136.867C204.428 136.477 205.198 136.281 206.152 136.281C206.667 136.281 207.149 136.333 207.597 136.438C208.05 136.536 208.472 136.672 208.862 136.844L208.425 137.883C208.071 137.732 207.693 137.604 207.292 137.5C206.891 137.396 206.482 137.344 206.066 137.344C205.467 137.344 205.006 137.443 204.683 137.641C204.365 137.839 204.206 138.109 204.206 138.453C204.206 138.719 204.279 138.938 204.425 139.109C204.576 139.281 204.816 139.443 205.144 139.594C205.472 139.745 205.904 139.922 206.441 140.125C206.977 140.323 207.441 140.529 207.831 140.742C208.222 140.951 208.521 141.206 208.73 141.508C208.943 141.805 209.05 142.188 209.05 142.656ZM217.872 133.578C219.346 133.578 220.421 133.867 221.098 134.445C221.781 135.018 222.122 135.841 222.122 136.914C222.122 137.398 222.041 137.859 221.88 138.297C221.723 138.729 221.468 139.112 221.114 139.445C220.76 139.773 220.294 140.034 219.716 140.227C219.143 140.414 218.44 140.508 217.606 140.508H216.216V145H214.888V133.578H217.872ZM217.747 134.711H216.216V139.367H217.458C218.187 139.367 218.794 139.289 219.278 139.133C219.768 138.977 220.135 138.724 220.38 138.375C220.624 138.021 220.747 137.552 220.747 136.969C220.747 136.208 220.505 135.643 220.02 135.273C219.536 134.898 218.778 134.711 217.747 134.711ZM227.908 136.281C228.08 136.281 228.259 136.292 228.447 136.312C228.634 136.328 228.801 136.352 228.947 136.383L228.783 137.586C228.642 137.549 228.486 137.521 228.314 137.5C228.142 137.479 227.981 137.469 227.83 137.469C227.486 137.469 227.16 137.539 226.853 137.68C226.551 137.815 226.285 138.013 226.056 138.273C225.827 138.529 225.647 138.839 225.517 139.203C225.387 139.562 225.322 139.964 225.322 140.406V145H224.017V136.438H225.095L225.236 138.016H225.291C225.468 137.698 225.681 137.409 225.931 137.148C226.181 136.883 226.47 136.672 226.798 136.516C227.132 136.359 227.502 136.281 227.908 136.281ZM237.647 140.703C237.647 141.406 237.556 142.034 237.373 142.586C237.191 143.138 236.928 143.604 236.584 143.984C236.241 144.365 235.824 144.656 235.334 144.859C234.85 145.057 234.301 145.156 233.686 145.156C233.113 145.156 232.587 145.057 232.108 144.859C231.634 144.656 231.222 144.365 230.873 143.984C230.53 143.604 230.261 143.138 230.069 142.586C229.881 142.034 229.788 141.406 229.788 140.703C229.788 139.766 229.946 138.969 230.264 138.312C230.582 137.651 231.035 137.148 231.623 136.805C232.217 136.456 232.923 136.281 233.741 136.281C234.522 136.281 235.204 136.456 235.788 136.805C236.376 137.154 236.832 137.659 237.155 138.32C237.483 138.977 237.647 139.771 237.647 140.703ZM231.131 140.703C231.131 141.391 231.222 141.987 231.405 142.492C231.587 142.997 231.868 143.388 232.248 143.664C232.629 143.94 233.118 144.078 233.717 144.078C234.311 144.078 234.798 143.94 235.178 143.664C235.564 143.388 235.847 142.997 236.03 142.492C236.212 141.987 236.303 141.391 236.303 140.703C236.303 140.021 236.212 139.432 236.03 138.938C235.847 138.438 235.566 138.052 235.186 137.781C234.806 137.51 234.314 137.375 233.709 137.375C232.819 137.375 232.165 137.669 231.748 138.258C231.337 138.846 231.131 139.661 231.131 140.703Z" fill="white" fill-opacity="0.75"/>
</svg>
